# AST/ASF file generated using VICON BodyLanguage
# -----------------------------------------------
:version 1.10
:name VICON
:units
  mass 1.0
  length 0.45
  angle deg
:documentation
   .ast/.asf automatically generated from VICON data using
   VICON BodyBuilder and BodyLanguage model FoxedUp or BRILLIANT.MOD
:root
   order TX TY TZ RX RY RZ
   axis XYZ
   position 0 0 0  
   orientation 0 0 0 
:bonedata
  begin
     id 1 
     name lhipjoint
     direction 0.627457 -0.725269 0.283342 
     length 2.53237 
     axis 0 0 0  XYZ
  end
  begin
     id 2 
     name lfemur
     direction 0.34202 -0.939693 0  
     length 7.32496  
     axis 0 0 20  XYZ
    dof rx ry rz
    limits (-160.0 20.0)
           (-70.0 70.0)
           (-60.0 70.0)
  end
  begin
     id 3 
     name ltibia
     direction 0.34202 -0.939693 0   
     length 7.69674   
     axis 0 0 20   XYZ
    dof rx
    limits (-10.0 170.0)
  end
  begin
     id 4 
     name lfoot
     direction 0.127289 -0.349722 0.928166   
     length 1.8612   
     axis -90 7.62852e-016 20   XYZ
    dof rx rz
    limits (-45.0 90.0)
           (-70.0 20.0)
  end
  begin
     id 5 
     name ltoes
     direction 1.53561e-011 -4.21864e-011 1   
     length 0.925608   
     axis -90 7.62852e-016 20   XYZ
    dof rx
    limits (-90.0 20.0)
  end
  begin
     id 6 
     name rhipjoint
     direction -0.609094 -0.738725 0.288599   
     length 2.48624  
     axis 0 0 0  XYZ 
  end
  begin
     id 7 
     name rfemur
     direction -0.34202 -0.939693 0   
     length 7.44259   
     axis 0 0 -20   XYZ
    dof rx ry rz
    limits (-160.0 20.0)
           (-70.0 70.0)
           (-70.0 60.0)
  end
  begin
     id 8 
     name rtibia
     direction -0.34202 -0.939693 0   
     length 7.7781   
     axis 0 0 -20   XYZ
    dof rx
    limits (-10.0 170.0)
 end
 begin
     id 9 
     name rfoot
     direction -0.107015 -0.294021 0.949789   
     length 2.14741  
     axis -90 -7.62852e-016 -20   XYZ
    dof rx rz
    limits (-45.0 90.0)
           (-20.0 70.0)
  end
  begin
     id 10 
     name rtoes
     direction -1.53497e-011 -4.21924e-011 1   
     length 1.0706   
     axis -90 -7.62852e-016 -20   XYZ
    dof rx
    limits (-90.0 20.0)
  end
  begin
     id 11 
     name lowerback
     direction -0.0142066 0.998112 -0.0597545   
     length 1.86627   
     axis 0 0 0   XYZ
    dof rx ry rz
    limits (-20.0 45.0)
           (-30.0 30.0)
           (-30.0 30.0)
  end
  begin
     id 12 
     name upperback
     direction 0.00547294 0.999744 0.0219437   
     length 1.86272   
     axis 0 0 0   XYZ
    dof rx ry rz
    limits (-20.0 45.0)
           (-30.0 30.0)
           (-30.0 30.0)
  end
  begin
     id 13 
     name thorax
     direction 0.0116162 0.998704 0.0495538   
     length 1.8703   
     axis 0 0 0   XYZ
    dof rx ry rz
    limits (-20.0 45.0)
           (-30.0 30.0)
           (-30.0 30.0)
  end
  begin
     id 14 
     name lowerneck
     direction -0.0106574 0.998739 0.0490586   
     length 1.8074   
     axis 0 0 0   XYZ
    dof rx ry rz
    limits (-20.0 45.0)
           (-30.0 30.0)
           (-30.0 30.0)
  end
  begin
     id 15 
     name upperneck
     direction 0.030527 0.976587 -0.212944   
     length 1.80681   
     axis 0 0 0   XYZ
    dof rx ry rz
    limits (-20.0 45.0)
           (-30.0 30.0)
           (-30.0 30.0)
  end
  begin
     id 16
     name head
     direction 0.00869225 0.997035 -0.0764531  
     length 1.8313  
     axis 0 0 0   XYZ
    dof rx ry rz
    limits (-20.0 45.0)
           (-30.0 30.0)
           (-30.0 30.0)
  end
  begin
     id 17 
     name lclavicle
     direction 0.915958 0.399447 0.0382386  
     length 3.78965  
     axis 0 0 0   XYZ
    dof ry rz
    limits (-20.0 10.0)
           (0.0 20.0)
  end
  begin
     id 18 
     name lhumerus
     direction 1 -4.48967e-011 3.19303e-027   
     length 4.78095   
     axis -180 -30 -90   XYZ
    dof rx ry rz
    limits (-60.0 90.0)
           (-90.0 90.0)
           (-90.0 90.0)
  end
  begin
     id 19
     name lradius
     direction 1 -4.48967e-011 -3.77974e-027   
     length 3.58615   
     axis -180 -30 -90   XYZ
    dof rx
    limits (-10.0 170.0)
  end
  begin
     id 20
     name lwrist
     direction 1 -4.48927e-011 1.2807e-027   
     length 1.79307   
     axis 1.91374e-015 90 90   XYZ
    dof ry
    limits (-180.0 0.0)
 end
  begin
     id 21 
     name lhand
     direction 1 -4.49036e-011 2.5614e-027   
     length 0.659812   
     axis -1.63439e-015 90 90   XYZ
    dof rx rz
    limits (-90.0 90.0)
           (-45.0 45.0)
  end
  begin
     id 22 
     name lfingers
     direction 1 -4.49052e-011 5.1228e-027   
     length 0.531957   
     axis -3.26879e-015 90 90   XYZ
    dof rx
    limits (0.0 90.0)
  end
  begin
     id 23
     name lthumb
     direction 0.707107 -6.35012e-011 0.707107   
     length 0.763787   
     axis -90 45 2.85299e-015   XYZ
    dof rx rz
    limits (-45.0 45.0)
           (-45.0 45.0)
  end
  begin
     id 24 
     name rclavicle
     direction -0.895351 0.435135 0.0948887   
     length 3.70497  
     axis 0 0 0   XYZ 
    dof ry rz
    limits (-10.0 20.0)
           (-20.0 0.0)
  end
  begin
     id 25 
     name rhumerus
     direction -1 -4.48971e-011 2.38946e-027  
     length 4.48913   
     axis -180 30 90   XYZ
    dof rx ry rz
    limits (-90.0 60.0)
           (-90.0 90.0)
           (-90.0 90.0)
  end
  begin
     id 26 
     name rradius
     direction -1 -4.4895e-011 4.38668e-027   
     length 3.7051   
     axis -180 30 90   XYZ
    dof rx
    limits (-10.0 170.0)
  end
  begin
     id 27 
     name rwrist
     direction -1 -4.49007e-011 1.2807e-027   
     length 1.85255   
     axis 1.91374e-015 -90 -90   XYZ
    dof ry
    limits (-180.0 0.0)
  end
  begin
     id 28
     name rhand
     direction -1 -4.48851e-011 2.5614e-027   
     length 0.449136   
     axis -1.63439e-015 -90 -90   XYZ
    dof rx rz
    limits (-90.0 90.0)
           (-45.0 45.0)
  end
  begin
     id 29
     name rfingers
     direction -1 -4.49128e-011 5.1228e-027   
     length 0.362105   
     axis -3.26879e-015 -90 -90   XYZ
    dof rx
    limits (0.0 90.0)
  end
  begin
     id 30
     name rthumb
     direction -0.707107 -6.34851e-011 0.707107   
     length 0.519912   
     axis -90 -45 -2.85299e-015   XYZ
    dof rx rz
    limits (-45.0 45.0)
           (-45.0 45.0)
  end
:hierarchy
  begin
    root lhipjoint rhipjoint lowerback
    lhipjoint lfemur
    lfemur ltibia
    ltibia lfoot
    lfoot ltoes
    rhipjoint rfemur
    rfemur rtibia
    rtibia rfoot
    rfoot rtoes
    lowerback upperback
    upperback thorax
    thorax lowerneck lclavicle rclavicle
    lowerneck upperneck
    upperneck head
    lclavicle lhumerus
    lhumerus lradius
    lradius lwrist
    lwrist lhand lthumb
    lhand lfingers
    rclavicle rhumerus
    rhumerus rradius
    rradius rwrist
    rwrist rhand rthumb
    rhand rfingers
  end

#!OML:ASF I:\Actors\actors\Patient Classification 2\Patient 1\Session 1\actor1.ASF
:FULLY-SPECIFIED
:DEGREES
53
root -0.591158 18.1937 5.57748 4.70713 -3.85212 -2.28144
lowerback -2.42459 1.78464 1.10758
upperback -4.1129 2.37211 -0.133176
thorax -2.81542 1.1511 -0.757293
lowerneck -9.67842 -2.92557 -1.95312
upperneck 22.9471 -4.90089 4.92583
head 8.93572 -1.97078 1.48395
rclavicle 1.6847e-014 5.96354e-015
rhumerus -51.1869 -5.25699 -86.4558
rradius 42.0875
rwrist 14.5621
rhand -8.10055 -38.5264
rfingers 7.12502
rthumb 17.8121 -67.7307
lclavicle 1.6847e-014 5.96354e-015
lhumerus -44.1813 0.267982 90.2081
lradius 36.825
lwrist -3.55346
lhand -6.54977 -23.3522
lfingers 7.12502
lthumb 19.3038 5.7097
rfemur 6.14854 3.4072 15.6881
rtibia -7.91642
rfoot -11.2541 -11.5526
rtoes 3.53117
lfemur 9.54564 -9.60395 -12.6017
ltibia -9.7692
lfoot -10.014 21.003
ltoes -8.61604
54
root -0.591303 18.1946 5.57699 4.71867 -3.83901 -2.29198
lowerback -2.43186 1.77725 1.11162
upperback -4.11497 2.36227 -0.127278
thorax -2.81377 1.14616 -0.753299
lowerneck -9.68955 -2.91065 -1.96412
upperneck 22.949 -4.88314 4.94815
head 8.93859 -1.96085 1.49519
rclavicle 8.12532e-015 -4.37326e-015
rhumerus -51.1692 -5.2316 -86.4608
rradius 42.0735
rwrist 14.5299
rhand -8.2016 -38.5168
rfingers 7.12502
rthumb 17.7149 -67.7299
lclavicle 8.12532e-015 -4.37326e-015
lhumerus -44.1676 0.284799 90.2006
lradius 36.8187
lwrist -3.55384
lhand -6.57131 -23.399
lfingers 7.12502
lthumb 19.2831 5.66496
rfemur 6.14626 3.39391 15.7016
rtibia -7.9275
rfoot -11.2171 -11.565
rtoes 3.36341
lfemur 9.53044 -9.61553 -12.5825
ltibia -9.7661
lfoot -10.0375 21.023
ltoes -8.48653
55
root -0.591412 18.1948 5.5769 4.7429 -3.84493 -2.30087
lowerback -2.45556 1.78292 1.117
upperback -4.11723 2.36951 -0.126958
thorax -2.80247 1.14971 -0.75519
lowerneck -9.70164 -2.90618 -1.94056
upperneck 22.9374 -4.8751 4.92518
head 8.93535 -1.95737 1.48406
rclavicle -1.92573e-014 2.78299e-015
rhumerus -51.1534 -5.21102 -86.4599
rradius 42.0574
rwrist 14.4941
rhand -8.28987 -38.4777
rfingers 7.12502
rthumb 17.6299 -67.6984
lclavicle -1.92573e-014 2.78299e-015
lhumerus -44.144 0.293251 90.1964
lradius 36.8057
lwrist -3.58327
lhand -6.5833 -23.4492
lfingers 7.12502
lthumb 19.2716 5.61596
rfemur 6.12293 3.39829 15.7125
rtibia -7.93509
rfoot -11.1974 -11.5764
rtoes 3.17101
lfemur 9.50342 -9.60689 -12.5641
ltibia -9.76137
lfoot -10.0155 21.0089
ltoes -8.42057
56
root -0.590874 18.1948 5.57746 4.74344 -3.85335 -2.29456
lowerback -2.45776 1.78923 1.11043
upperback -4.11725 2.37792 -0.127366
thorax -2.80132 1.15411 -0.751852
lowerneck -9.67394 -2.91085 -1.91339
upperneck 22.9011 -4.87192 4.87047
head 8.9154 -1.96024 1.46144
rclavicle 3.18304e-014 3.57812e-015
rhumerus -51.1813 -5.20107 -86.4319
rradius 42.074
rwrist 14.4852
rhand -8.2934 -38.4608
rfingers 7.12502
rthumb 17.6265 -67.6818
lclavicle 3.18304e-014 3.57812e-015
lhumerus -44.1446 0.290285 90.2086
lradius 36.8115
lwrist -3.5861
lhand -6.58997 -23.4538
lfingers 7.12502
lthumb 19.2651 5.61193
rfemur 6.13035 3.4063 15.7035
rtibia -7.95089
rfoot -11.2211 -11.5862
rtoes 3.09476
lfemur 9.49924 -9.59851 -12.5739
ltibia -9.74839
lfoot -10.0049 20.9649
ltoes -8.60908
57
root -0.590215 18.1951 5.57801 4.72991 -3.85343 -2.2767
lowerback -2.44951 1.78462 1.08522
upperback -4.11363 2.37203 -0.1253
thorax -2.80339 1.15193 -0.735892
lowerneck -9.62688 -2.91492 -1.88105
upperneck 22.8404 -4.86466 4.80276
head 8.88277 -1.96284 1.43417
rclavicle -2.28354e-014 1.15295e-014
rhumerus -51.2124 -5.17136 -86.4188
rradius 42.1041
rwrist 14.4749
rhand -8.27799 -38.5624
rfingers 7.12502
rthumb 17.6413 -67.782
lclavicle -2.28354e-014 1.15295e-014
lhumerus -44.1612 0.310707 90.2134
lradius 36.832
lwrist -3.58776
lhand -6.6224 -23.4835
lfingers 7.12502
lthumb 19.234 5.58536
rfemur 6.15365 3.40671 15.6791
rtibia -7.96201
rfoot -11.2416 -11.5811
rtoes 3.23525
lfemur 9.51186 -9.60029 -12.6012
ltibia -9.7472
lfoot -10.0133 20.981
ltoes -8.81022
58
root -0.590534 18.1947 5.57735 4.7198 -3.84786 -2.27144
lowerback -2.4413 1.77382 1.05727
upperback -4.10847 2.358 -0.116967
thorax -2.80436 1.14587 -0.711944
lowerneck -9.60556 -2.90836 -1.85944
upperneck 22.8 -4.85095 4.77505
head 8.86306 -1.95843 1.42274
rclavicle -7.1811e-015 1.98785e-015
rhumerus -51.1945 -5.14546 -86.4156
rradius 42.0757
rwrist 14.4526
rhand -8.28305 -38.5862
rfingers 7.12502
rthumb 17.6365 -67.8064
lclavicle -7.1811e-015 1.98785e-015
lhumerus -44.1701 0.33219 90.211
lradius 36.8474
lwrist -3.58223
lhand -6.64146 -23.5613
lfingers 7.12502
lthumb 19.2156 5.50936
rfemur 6.15823 3.40149 15.6748
rtibia -7.95547
rfoot -11.2191 -11.5718
rtoes 3.35047
lfemur 9.52222 -9.60662 -12.6129
ltibia -9.7608
lfoot -10.0293 21.0083
ltoes -8.75233
59
root -0.590836 18.1942 5.57668 4.71589 -3.84333 -2.27028
lowerback -2.44718 1.77032 1.04697
upperback -4.10075 2.35332 -0.114406
thorax -2.79366 1.14397 -0.703211
lowerneck -9.59951 -2.90533 -1.84882
upperneck 22.7829 -4.84423 4.76002
head 8.85515 -1.95629 1.4166
rclavicle -2.26118e-015 1.43125e-014
rhumerus -51.1834 -5.14318 -86.4097
rradius 42.0592
rwrist 14.4233
rhand -8.27889 -38.5629
rfingers 7.12502
rthumb 17.6405 -67.7826
lclavicle -2.26118e-015 1.43125e-014
lhumerus -44.1622 0.303362 90.2219
lradius 36.845
lwrist -3.54913
lhand -6.62675 -23.5722
lfingers 7.12502
lthumb 19.2298 5.49705
rfemur 6.14237 3.39665 15.6787
rtibia -7.9265
rfoot -11.2154 -11.5701
rtoes 3.22766
lfemur 9.5347 -9.61119 -12.6173
ltibia -9.78573
lfoot -10.0538 20.9822
ltoes -8.70326
60
root -0.590666 18.1946 5.57655 4.72396 -3.84103 -2.28486
lowerback -2.46251 1.77704 1.06474
upperback -4.0924 2.36203 -0.110046
thorax -2.77574 1.14804 -0.707934
lowerneck -9.62325 -2.90743 -1.84852
upperneck 22.7715 -4.84392 4.74953
head 8.85534 -1.95693 1.41266
rclavicle -1.15544e-014 3.97569e-016
rhumerus -51.1878 -5.13718 -86.4103
rradius 42.0789
rwrist 14.3782
rhand -8.34144 -38.6586
rfingers 7.12502
rthumb 17.5803 -67.8837
lclavicle -1.15544e-014 3.97569e-016
lhumerus -44.1381 0.275321 90.24
lradius 36.8323
lwrist -3.53199
lhand -6.63931 -23.5315
lfingers 7.12502
lthumb 19.2177 5.53895
rfemur 6.10867 3.3945 15.6974
rtibia -7.88143
rfoot -11.2473 -11.5669
rtoes 3.13088
lfemur 9.54531 -9.61183 -12.5985
ltibia -9.81996
lfoot -10.0328 20.9849
ltoes -8.76327
61
root -0.590577 18.1955 5.57679 4.7304 -3.85165 -2.30223
lowerback -2.45737 1.78558 1.07714
upperback -4.09896 2.37354 -0.106822
thorax -2.78485 1.15341 -0.711847
lowerneck -9.62371 -2.90905 -1.84569
upperneck 22.7576 -4.85 4.76658
head 8.85128 -1.95801 1.41726
rclavicle 4.32108e-014 -2.78299e-015
rhumerus -51.1952 -5.1458 -86.411
rradius 42.0619
rwrist 14.3565
rhand -8.42053 -38.6529
rfingers 7.12502
rthumb 17.5042 -67.8849
lclavicle 4.32108e-014 -2.78299e-015
lhumerus -44.1396 0.277511 90.2415
lradius 36.8266
lwrist -3.54449
lhand -6.66587 -23.4993
lfingers 7.12502
lthumb 19.1921 5.57368
rfemur 6.08438 3.40615 15.7129
rtibia -7.84735
rfoot -11.2732 -11.5499
rtoes 3.20941
lfemur 9.55784 -9.59986 -12.5776
ltibia -9.84279
lfoot -9.96299 21.0258
ltoes -9.05371
62
root -0.590615 18.1954 5.57709 4.71714 -3.86794 -2.30612
lowerback -2.43377 1.79063 1.07286
upperback -4.10685 2.38061 -0.109589
thorax -2.80619 1.15683 -0.713276
lowerneck -9.5985 -2.91593 -1.84293
upperneck 22.7683 -4.86643 4.7897
head 8.85146 -1.96342 1.42326
rclavicle 5.27773e-014 1.19271e-015
rhumerus -51.2099 -5.14779 -86.4164
rradius 42.0432
rwrist 14.3535
rhand -8.40227 -38.5918
rfingers 7.12502
rthumb 17.5217 -67.8222
lclavicle 5.27773e-014 1.19271e-015
lhumerus -44.1572 0.273779 90.2393
lradius 36.8252
lwrist -3.54652
lhand -6.65453 -23.4492
lfingers 7.12502
lthumb 19.2031 5.62271
rfemur 6.09007 3.42419 15.7118
rtibia -7.8264
rfoot -11.2731 -11.536
rtoes 3.32628
lfemur 9.58486 -9.58524 -12.5774
ltibia -9.85295
lfoot -9.94334 21.0443
ltoes -9.47604
63
root -0.590919 18.1949 5.57633 4.71205 -3.86372 -2.29864
lowerback -2.42351 1.79136 1.05338
upperback -4.10613 2.38183 -0.109386
thorax -2.81195 1.15797 -0.702543
lowerneck -9.6094 -2.92469 -1.86135
upperneck 22.8092 -4.87987 4.80011
head 8.86881 -1.96938 1.42844
rclavicle -3.57812e-015 -5.56597e-015
rhumerus -51.2172 -5.13521 -86.4107
rradius 42.05
rwrist 14.3426
rhand -8.37391 -38.6112
rfingers 7.12502
rthumb 17.549 -67.8392
lclavicle -3.57812e-015 -5.56597e-015
lhumerus -44.1529 0.260694 90.2535
lradius 36.8167
lwrist -3.53238
lhand -6.62846 -23.4289
lfingers 7.12502
lthumb 19.2281 5.64057
rfemur 6.09186 3.41998 15.703
rtibia -7.8202
rfoot -11.2625 -11.5375
rtoes 3.41804
lfemur 9.5822 -9.59039 -12.5865
ltibia -9.85319
lfoot -9.96911 21.0357
ltoes -9.46934
64
root -0.590499 18.1948 5.57597 4.72292 -3.85072 -2.29706
lowerback -2.43661 1.79659 1.05576
upperback -4.11023 2.38845 -0.118501
thorax -2.80824 1.16109 -0.712842
lowerneck -9.61219 -2.9385 -1.84346
upperneck 22.8246 -4.89714 4.77344
head 8.87418 -1.97838 1.41453
rclavicle -1.49089e-016 3.97569e-015
rhumerus -51.2311 -5.1571 -86.4039
rradius 42.061
rwrist 14.3453
rhand -8.26329 -38.6982
rfingers 7.12502
rthumb 17.6555 -67.9166
lclavicle -1.49089e-016 3.97569e-015
lhumerus -44.1543 0.225819 90.2565
lradius 36.8107
lwrist -3.50991
lhand -6.61522 -23.4148
lfingers 7.12502
lthumb 19.2409 5.65339
rfemur 6.09199 3.4064 15.6994
rtibia -7.84193
rfoot -11.268 -11.5352
rtoes 3.45744
lfemur 9.55261 -9.60197 -12.5847
ltibia -9.8357
lfoot -9.99112 21.0039
ltoes -8.90276
65
root -0.589319 18.1944 5.57641 4.71903 -3.85201 -2.28911
lowerback -2.44171 1.80196 1.05868
upperback -4.11685 2.39535 -0.128853
thorax -2.81154 1.16424 -0.725042
lowerneck -9.59771 -2.94697 -1.78767
upperneck 22.8333 -4.9038 4.70428
head 8.87152 -1.98395 1.38115
rclavicle -2.84759e-014 1.11319e-014
rhumerus -51.2435 -5.16869 -86.404
rradius 42.0589
rwrist 14.3581
rhand -8.11735 -38.7887
rfingers 7.12502
rthumb 17.7959 -67.9944
lclavicle -2.84759e-014 1.11319e-014
lhumerus -44.196 0.188721 90.2582
lradius 36.8443
lwrist -3.48081
lhand -6.62467 -23.3532
lfingers 7.12502
lthumb 19.2318 5.71587
rfemur 6.10751 3.40785 15.6868
rtibia -7.86172
rfoot -11.2819 -11.534
rtoes 3.38326
lfemur 9.55102 -9.60164 -12.5942
ltibia -9.82256
lfoot -10.0146 20.9967
ltoes -8.35292
66
root -0.588607 18.1941 5.57642 4.71595 -3.86221 -2.27174
lowerback -2.45877 1.79858 1.03706
upperback -4.11228 2.39073 -0.126505
thorax -2.79828 1.1627 -0.709884
lowerneck -9.60153 -2.9359 -1.76076
upperneck 22.8481 -4.88468 4.66421
head 8.87484 -1.97647 1.36506
rclavicle 2.31087e-014 -1.59028e-015
rhumerus -51.2338 -5.1676 -86.3863
rradius 42.0461
rwrist 14.3947
rhand -8.16362 -38.6623
rfingers 7.12502
rthumb 17.7514 -67.8721
lclavicle 2.31087e-014 -1.59028e-015
lhumerus -44.2284 0.176459 90.2763
lradius 36.8954
lwrist -3.42563
lhand -6.64246 -23.2994
lfingers 7.12502
lthumb 19.2147 5.77142
rfemur 6.10847 3.41714 15.6652
rtibia -7.86302
rfoot -11.2921 -11.5345
rtoes 3.36229
lfemur 9.55651 -9.59267 -12.6162
ltibia -9.82608
lfoot -10.0257 21.0139
ltoes -8.40533
